<?xml version="1.0" encoding="UTF-8"?>
<!DOCTYPE svg PUBLIC "-//W3C//DTD SVG 1.1//EN" "http://www.w3.org/Graphics/SVG/1.1/DTD/svg11.dtd">
<svg xmlns="http://www.w3.org/2000/svg" version="1.1" width="96px" height="96px" style="shape-rendering:geometricPrecision; text-rendering:geometricPrecision; image-rendering:optimizeQuality; fill-rule:evenodd; clip-rule:evenodd" xmlns:xlink="http://www.w3.org/1999/xlink">
<g><path style="opacity:0.547" fill="#ed4460" d="M 29.5,-0.5 C 30.5,-0.5 31.5,-0.5 32.5,-0.5C 31.7542,3.30997 30.7542,3.30997 29.5,-0.5 Z"/></g>
<g><path style="opacity:0.748" fill="#0f0f0c" d="M 38.5,3.5 C 52.9627,3.63052 59.9627,10.9639 59.5,25.5C 62.4475,25.2229 65.2809,25.5562 68,26.5C 68.3742,25.5838 68.8742,24.7504 69.5,24C 72.2656,23.1632 74.7656,21.9965 77,20.5C 79.2344,21.9965 81.7344,23.1632 84.5,24C 87.1667,26 87.1667,28 84.5,30C 86.9677,31.5883 87.1343,33.4216 85,35.5C 82.7452,36.0418 80.9119,37.2085 79.5,39C 77.8333,39.3333 76.1667,39.6667 74.5,40C 77.274,43.753 76.6073,46.9197 72.5,49.5C 70.9579,48.2532 69.4579,48.2532 68,49.5C 67.8038,51.2861 66.9705,52.6195 65.5,53.5C 64.6786,56.4465 64.1786,59.4465 64,62.5C 63.1667,63.3333 62.3333,64.1667 61.5,65C 48.8333,65.6667 36.1667,65.6667 23.5,65C 22.0692,64.5348 20.9025,63.7014 20,62.5C 19.3333,51.5 19.3333,40.5 20,29.5C 20.7589,27.3651 22.2589,26.0318 24.5,25.5C 23.6753,14.4479 28.342,7.11459 38.5,3.5 Z M 38.5,12.5 C 47.9957,11.6644 51.9957,15.9978 50.5,25.5C 44.8333,25.5 39.1667,25.5 33.5,25.5C 32.6778,20.1538 34.3445,15.8204 38.5,12.5 Z M 76.5,28.5 C 78.7602,29.2376 78.9269,30.2376 77,31.5C 75.2716,30.6477 75.105,29.6477 76.5,28.5 Z M 62.5,35.5 C 66.2635,36.385 67.2635,38.5516 65.5,42C 62.4333,43.1642 60.7666,42.1642 60.5,39C 60.8618,37.5657 61.5285,36.3991 62.5,35.5 Z"/></g>
<g><path style="opacity:1" fill="#bccbd8" d="M 56.5,18.5 C 56.5,20.8333 56.5,23.1667 56.5,25.5C 55.5,25.5 54.5,25.5 53.5,25.5C 53.8016,22.9407 53.4682,20.6074 52.5,18.5C 49.3129,9.93674 43.6463,7.77008 35.5,12C 33.9512,13.214 32.7845,14.714 32,16.5C 31.5017,19.8168 31.335,23.1501 31.5,26.5C 30.1667,26.5 28.8333,26.5 27.5,26.5C 27.3078,9.1755 35.3078,3.34216 51.5,9C 54.3593,11.5525 56.026,14.7192 56.5,18.5 Z M 38.5,12.5 C 34.3445,15.8204 32.6778,20.1538 33.5,25.5C 39.1667,25.5 44.8333,25.5 50.5,25.5C 51.9957,15.9978 47.9957,11.6644 38.5,12.5 Z"/></g>
<g><path style="opacity:0.76" fill="#f5cb4e" d="M 19.5,5.5 C 20.3164,7.14361 21.6498,8.31028 23.5,9C 22.3147,10.353 20.9814,11.5197 19.5,12.5C 18.5,11.5 17.5,10.5 16.5,9.5C 17.5244,8.14819 18.5244,6.81486 19.5,5.5 Z"/></g>
<g><path style="opacity:1" fill="#50565c" d="M 52.5,18.5 C 53.4682,20.6074 53.8016,22.9407 53.5,25.5C 54.5,25.5 55.5,25.5 56.5,25.5C 56.5,23.1667 56.5,20.8333 56.5,18.5C 57.4731,20.9479 57.8064,23.6146 57.5,26.5C 55.8333,26.5 54.1667,26.5 52.5,26.5C 52.5,23.8333 52.5,21.1667 52.5,18.5 Z"/></g>
<g><path style="opacity:1" fill="#f6d883" d="M 23.5,28.5 C 35.5046,28.3335 47.5046,28.5001 59.5,29C 57.3766,30.1937 55.0432,30.8603 52.5,31C 42.1667,31.6667 31.8333,31.6667 21.5,31C 22.3805,30.2917 23.0472,29.4584 23.5,28.5 Z"/></g>
<g><path style="opacity:1" fill="#3598c5" d="M 61.5,27.5 C 62.8333,27.5 64.1667,27.5 65.5,27.5C 65.3505,28.552 65.5172,29.552 66,30.5C 67.6965,31.3636 68.8632,32.6969 69.5,34.5C 70.7287,35.2811 72.062,35.7811 73.5,36C 72.0109,38.7134 72.3443,41.2134 74.5,43.5C 73.8384,46.3607 72.3384,47.0273 70,45.5C 67.3516,46.2192 65.8516,47.8859 65.5,50.5C 64.1667,50.5 62.8333,50.5 61.5,50.5C 60.5913,46.5805 58.258,45.2471 54.5,46.5C 53.5853,45.6721 52.9186,44.6721 52.5,43.5C 53.585,42.2159 54.2517,40.7159 54.5,39C 53.9108,37.0282 53.4108,35.1949 53,33.5C 55.5197,32.7934 58.0197,31.96 60.5,31C 61.3366,29.9887 61.67,28.8221 61.5,27.5 Z M 62.5,35.5 C 61.5285,36.3991 60.8618,37.5657 60.5,39C 60.7666,42.1642 62.4333,43.1642 65.5,42C 67.2635,38.5516 66.2635,36.385 62.5,35.5 Z"/></g>
<g><path style="opacity:1" fill="#5badca" d="M 75.5,22.5 C 76.5,22.5 77.5,22.5 78.5,22.5C 78.5,23.5 78.5,24.5 78.5,25.5C 80.288,25.2148 81.9547,25.5481 83.5,26.5C 82.2203,28.7016 82.2203,30.8683 83.5,33C 80.9664,33.5163 78.7998,34.683 77,36.5C 75.2002,34.683 73.0336,33.5163 70.5,33C 71.8333,31 71.8333,29 70.5,27C 73.5246,26.8455 75.1913,25.3455 75.5,22.5 Z M 76.5,28.5 C 75.105,29.6477 75.2716,30.6477 77,31.5C 78.9269,30.2376 78.7602,29.2376 76.5,28.5 Z"/></g>
<g><path style="opacity:0.809" fill="#070d0f" d="M 74.5,26.5 C 80.5548,25.9421 81.8881,28.1088 78.5,33C 73.7915,33.082 72.4582,30.9154 74.5,26.5 Z M 76.5,28.5 C 75.105,29.6477 75.2716,30.6477 77,31.5C 78.9269,30.2376 78.7602,29.2376 76.5,28.5 Z"/></g>
<g><path style="opacity:1" fill="#edc249" d="M 21.5,33.5 C 31.1667,33.5 40.8333,33.5 50.5,33.5C 50.955,35.3666 51.6216,37.1999 52.5,39C 52.5066,40.8122 51.84,42.3122 50.5,43.5C 51.1279,45.2581 52.1279,46.7581 53.5,48C 57.4026,46.795 59.4026,48.295 59.5,52.5C 60.5,52.5 61.5,52.5 62.5,52.5C 62.5,54.1667 62.5,55.8333 62.5,57.5C 48.8333,57.5 35.1667,57.5 21.5,57.5C 21.5,49.5 21.5,41.5 21.5,33.5 Z"/></g>
<g><path style="opacity:0.715" fill="#050c0f" d="M 60.5,33.5 C 69.4019,33.5134 71.4019,37.0134 66.5,44C 57.4123,44.4258 55.4123,40.9258 60.5,33.5 Z M 62.5,35.5 C 61.5285,36.3991 60.8618,37.5657 60.5,39C 60.7666,42.1642 62.4333,43.1642 65.5,42C 67.2635,38.5516 66.2635,36.385 62.5,35.5 Z"/></g>
<g><path style="opacity:0.551" fill="#5290d9" d="M 15.5,34.5 C 16.9953,34.4148 17.9953,35.0815 18.5,36.5C 15.6232,37.9109 14.6232,37.2442 15.5,34.5 Z"/></g>
<g><path style="opacity:1" fill="#17130c" d="M 40.5,36.5 C 47.5929,37.3491 49.2596,40.8491 45.5,47C 46.6094,49.0466 47.2761,51.2133 47.5,53.5C 44.1667,53.5 40.8333,53.5 37.5,53.5C 38.6356,49.6608 38.6356,45.8274 37.5,42C 37.8627,39.8077 38.8627,37.9744 40.5,36.5 Z"/></g>
<g><path style="opacity:1" fill="#3261a6" d="M 40.5,38.5 C 45.7063,39.283 46.7063,41.783 43.5,46C 46.8607,51.833 45.194,53.6664 38.5,51.5C 39.5921,49.8169 40.2587,47.9836 40.5,46C 39.3835,43.431 39.3835,40.931 40.5,38.5 Z"/></g>
<g><path style="opacity:1" fill="#e2c778" d="M 22.5,59.5 C 35.85,59.1675 49.1833,59.5008 62.5,60.5C 61.91,61.7989 60.91,62.6322 59.5,63C 47.8333,63.6667 36.1667,63.6667 24.5,63C 23.1772,62.1841 22.5106,61.0174 22.5,59.5 Z"/></g>
<g><path style="opacity:0.802" fill="#6fd5f8" d="M 70.5,61.5 C 76.1511,62.4417 76.6511,64.4417 72,67.5C 68.2795,66.0342 67.7795,64.0342 70.5,61.5 Z"/></g>
<g><path style="opacity:0.809" fill="#000000" d="M 20.5,68.5 C 35.1667,68.5 49.8333,68.5 64.5,68.5C 64.797,72.7675 64.4637,76.9341 63.5,81C 49.1667,81.6667 34.8333,81.6667 20.5,81C 19.1968,76.834 19.1968,72.6674 20.5,68.5 Z"/></g>
<g><path style="opacity:1" fill="#b5c4d0" d="M 22.5,70.5 C 35.8333,70.5 49.1667,70.5 62.5,70.5C 62.5,73.1667 62.5,75.8333 62.5,78.5C 49.1667,78.5 35.8333,78.5 22.5,78.5C 22.5,75.8333 22.5,73.1667 22.5,70.5 Z"/></g>
<g><path style="opacity:0.7" fill="#b1e26d" d="M 67.5,71.5 C 68.5,71.5 69.5,71.5 70.5,71.5C 69.7542,75.31 68.7542,75.31 67.5,71.5 Z"/></g>
<g><path style="opacity:1" fill="#595f66" d="M 25.5,74.5 C 36.8529,74.1678 48.1862,74.5012 59.5,75.5C 53.8333,75.8333 48.1667,76.1667 42.5,76.5C 36.4585,76.4955 30.7918,75.8288 25.5,74.5 Z"/></g>
<g><path style="opacity:1" fill="#87929c" d="M 22.5,70.5 C 22.5,73.1667 22.5,75.8333 22.5,78.5C 35.8333,78.5 49.1667,78.5 62.5,78.5C 49.0102,79.4957 35.3435,79.829 21.5,79.5C 21.19,76.2869 21.5233,73.2869 22.5,70.5 Z"/></g>
<g><path style="opacity:0.763" fill="#070102" d="M 64.5,95.5 C 49.8333,95.5 35.1667,95.5 20.5,95.5C 19.1968,91.3326 19.1968,87.166 20.5,83C 34.8333,82.3333 49.1667,82.3333 63.5,83C 64.4637,87.0659 64.797,91.2325 64.5,95.5 Z"/></g>
<g><path style="opacity:1" fill="#ce3a52" d="M 22.5,84.5 C 35.8333,84.5 49.1667,84.5 62.5,84.5C 62.5,87.5 62.5,90.5 62.5,93.5C 48.8333,93.5 35.1667,93.5 21.5,93.5C 21.2641,90.3915 21.5975,87.3915 22.5,84.5 Z"/></g>
<g><path style="opacity:1" fill="#230e10" d="M 24.5,87.5 C 25.8333,87.5 27.1667,87.5 28.5,87.5C 28.5,88.8333 28.5,90.1667 28.5,91.5C 27.1667,91.5 25.8333,91.5 24.5,91.5C 24.5,90.1667 24.5,88.8333 24.5,87.5 Z"/></g>
<g><path style="opacity:1" fill="#200d0e" d="M 36.5,88.5 C 37.9464,87.3871 39.6131,87.2204 41.5,88C 40.3595,88.7412 40.3595,89.5745 41.5,90.5C 40.302,90.9396 39.1353,91.273 38,91.5C 37.7679,90.2625 37.2679,89.2625 36.5,88.5 Z"/></g>
<g><path style="opacity:1" fill="#200d0e" d="M 55.5,88.5 C 56.9464,87.3871 58.6131,87.2204 60.5,88C 59.8095,89.0674 59.3095,90.2341 59,91.5C 58.2588,90.3595 57.4255,90.3595 56.5,91.5C 56.0357,90.3636 55.7024,89.3636 55.5,88.5 Z"/></g>
<g><path style="opacity:1" fill="#1a080a" d="M 30.5,87.5 C 31.8333,87.5 33.1667,87.5 34.5,87.5C 34.6567,88.8734 34.49,90.2068 34,91.5C 33.2588,90.3595 32.4255,90.3595 31.5,91.5C 30.5713,90.3112 30.238,88.9778 30.5,87.5 Z"/></g>
<g><path style="opacity:1" fill="#200d0e" d="M 43.5,87.5 C 44.8333,87.5 46.1667,87.5 47.5,87.5C 47.5,88.8333 47.5,90.1667 47.5,91.5C 46.1667,91.5 44.8333,91.5 43.5,91.5C 43.5,90.1667 43.5,88.8333 43.5,87.5 Z"/></g>
<g><path style="opacity:1" fill="#1d0b0c" d="M 49.5,87.5 C 50.8333,87.5 52.1667,87.5 53.5,87.5C 53.5,88.8333 53.5,90.1667 53.5,91.5C 52.1667,91.5 50.8333,91.5 49.5,91.5C 49.5,90.1667 49.5,88.8333 49.5,87.5 Z"/></g>
</svg>
